<?xml version="1.0" encoding="utf-8"?>
<!-- Generator: Adobe Illustrator 25.4.1, SVG Export Plug-In . SVG Version: 6.00 Build 0)  -->
<svg version="1.1" id="Layer_1" xmlns="http://www.w3.org/2000/svg" xmlns:xlink="http://www.w3.org/1999/xlink" x="0px" y="0px"
	 viewBox="0 0 283.46 425.2" style="enable-background:new 0 0 283.46 425.2;" xml:space="preserve">
<style type="text/css">
	.st0{fill:#E62F32;}
	.st1{fill:#010202;}
	.st2{fill:#E62E30;}
	.st3{fill:#787878;}
</style>
<g>
	<g>
		<g>
			<g>
				<path class="st0" d="M183.59,138.36c0.13-112.71,19.79-114.81-130.85-85.04c-2.85,0.56-4.17-4.78-1.41-5.67
					c38.88-12.43,82.95-22.67,101.3-22.68c50.04-0.01,81.21,45.47,81.21,113.62c0,67.68-31.16,113.15-81.21,113.15
					c-18.34,0-62.7-10.66-101.3-22.68c-2.72-0.85-2.1-6.19,0.7-5.67C202.92,251.33,183.46,251.71,183.59,138.36"/>
			</g>
		</g>
		<path class="st1" d="M144.88,226.24l-86.4-8.5c-4.88,0-8.84-3.99-8.84-8.9V67.89c0-4.92,3.96-8.9,8.84-8.9l86.21-8.5
			c9.67,0,17.51,7.9,17.51,17.64v140.66C162.19,218.43,154.44,226.24,144.88,226.24z"/>
	</g>
	<g>
		<path class="st1" d="M90.34,271.94l-9.45,9.35l-7.35-7.35c-1.1-1.1-1.11-2.89-0.01-4l7.36-7.44L90.34,271.94z"/>
		<path class="st1" d="M109.09,271.94l-9.45,9.35l-7.35-7.35c-1.1-1.1-1.11-2.89-0.01-4l7.36-7.44L109.09,271.94z"/>
		<path class="st1" d="M113.32,347.04l-7.35-7.35c-1.1-1.1-1.11-2.89-0.01-4l7.36-7.44l9.45,9.45L113.32,347.04z"/>
		<path class="st1" d="M150.73,314.62c-4.18,5.44-10.38,8.15-18.61,8.15H117.5c-0.33,0-0.66-0.01-0.99-0.01
			c-4.66-0.15-8.54-1.34-11.64-3.57c-3.51,2.39-7.79,3.58-12.83,3.58h-19.1c-7.56,0-12.98-1.85-16.26-5.57
			c-3.28-3.71-5.09-10.01-5.42-18.9l-1.68-42.95c-0.06-1.55,1.14-2.86,2.69-2.94l13.11-0.66l1.79,46.55c0,3.32,0.24,5.24,0.7,5.77
			c0.46,0.54,2.15,0.8,5.07,0.8h19.1c2.12,0,3.48-0.17,4.08-0.5c0.6-0.33,0.83-0.99,0.69-1.99l-0.84-9.43
			c-0.14-1.55,1-2.93,2.55-3.08l13.12-1.31l1.09,12.23c0,0.33,0.03,0.6,0.1,0.8c0.13,1.46,0.46,2.37,0.99,2.73
			c0.53,0.37,1.76,0.55,3.68,0.55h14.62c3.12,0,5.09-0.46,5.92-1.39c0.83-0.93,0.88-2.69,0.15-5.28l-3.18-12.16
			c-0.39-1.48,0.47-3,1.93-3.44l12.69-3.79l4.18,15.71C155.93,302.48,154.9,309.18,150.73,314.62z"/>
		<path class="st1" d="M117.5,322.77h-0.99v-0.01C116.84,322.76,117.17,322.77,117.5,322.77z"/>
		<path class="st1" d="M132.06,347.04l-7.35-7.35c-1.1-1.1-1.11-2.89-0.01-4l7.36-7.44l9.45,9.45L132.06,347.04z"/>
		<path class="st1" d="M150.86,348.14l-3.53-14.64c-0.36-1.48,0.53-2.98,1.99-3.4c6.68-1.9,10.89-3.42,12.63-4.54
			c1.96-1.26,2.7-3.48,2.24-6.66l-3.59-25.77c-0.21-1.54,0.85-2.97,2.39-3.2l12.94-1.97l3.98,28.85c1.19,8.75-0.45,15.37-4.92,19.84
			C170.5,341.12,162.46,344.95,150.86,348.14z"/>
		<path class="st2" d="M203.88,322.77c-5.31,0-9.72-1.57-13.23-4.73c-3.52-3.15-5.27-6.91-5.27-11.29v-3.43
			c0-1.57,1.27-2.84,2.84-2.84h11.88v3.38c0,0.46,0.07,0.75,0.2,0.85c0.13,0.1,0.4,0.15,0.8,0.15h14.42c1.33,0,2.12-0.3,2.39-0.89
			c0.26-0.6,0.16-1.39-0.3-2.39c-1.13-2.85-2.93-6.42-5.42-10.69c-2.49-4.28-4.72-7.84-6.71-10.69l-1.47-2.24
			c-0.8-1.22-0.55-2.84,0.58-3.76l10.94-8.92c1.06,1.39,2.4,3.27,4.03,5.62c1.62,2.35,4.03,6.4,7.21,12.14
			c3.18,5.74,5.27,10.56,6.27,14.47c1.72,7.03,0.7,13-3.08,17.9c-3.78,4.91-9.32,7.36-16.61,7.36H203.88z"/>
	</g>
</g>
</svg>
